<svg width="49" height="46" viewBox="0 0 49 46" fill="none" xmlns="http://www.w3.org/2000/svg">
<path d="M18.0002 37.5261C18.0002 37.1352 18.1582 36.7603 18.4395 36.4839C18.7208 36.2075 19.1023 36.0522 19.5001 36.0522H28.4999C28.8977 36.0522 29.2792 36.2075 29.5605 36.4839C29.8418 36.7603 29.9998 37.1352 29.9998 37.5261C29.9998 37.917 29.8418 38.2919 29.5605 38.5683C29.2792 38.8447 28.8977 39 28.4999 39H19.5001C19.1023 39 18.7208 38.8447 18.4395 38.5683C18.1582 38.2919 18.0002 37.917 18.0002 37.5261ZM9.00048 24.4438C9.00048 20.6058 12.7054 17.6727 16.5902 18.0294C21.5194 18.4814 26.4806 18.4814 31.4098 18.0294C35.2946 17.6727 38.9995 20.6058 38.9995 24.4438V27.8544C39.0118 28.5066 38.7877 29.1419 38.3673 29.6467C37.9469 30.1516 37.3576 30.4932 36.7046 30.6106C34.1697 31.0439 29.6848 31.6305 24 31.6305C18.3152 31.6305 13.8303 31.041 11.2954 30.6106C10.6424 30.4932 10.0531 30.1516 9.63267 29.6467C9.21229 29.1419 8.98822 28.5066 9.00048 27.8544V24.4438ZM22.626 22.006C22.5091 21.9864 22.3892 21.9944 22.276 22.0293C22.1629 22.0641 22.0597 22.1248 21.9751 22.2064L19.2152 24.8594C17.3379 24.7495 15.4656 24.5695 13.6023 24.32C13.4092 24.3011 13.2162 24.3566 13.0638 24.4746C12.9115 24.5926 12.8116 24.7641 12.7852 24.953C12.7588 25.1419 12.8079 25.3335 12.9222 25.4876C13.0366 25.6416 13.2072 25.7461 13.3983 25.7791C15.0483 26.0032 17.0942 26.2184 19.4581 26.3481C19.5623 26.3538 19.6665 26.3382 19.7641 26.3022C19.8617 26.2661 19.9506 26.2105 20.0251 26.1388L22.2871 23.9692L24.828 29.0099C24.8815 29.1157 24.9601 29.2072 25.0572 29.2769C25.1542 29.3465 25.2669 29.3923 25.3857 29.4102C25.5045 29.4281 25.626 29.4177 25.7398 29.3798C25.8537 29.342 25.9566 29.2778 26.0399 29.1927L28.8358 26.3333C30.7643 26.2208 32.6876 26.036 34.6017 25.7791C34.7928 25.7461 34.9634 25.6416 35.0778 25.4876C35.1921 25.3335 35.2412 25.1419 35.2148 24.953C35.1884 24.7641 35.0885 24.5926 34.9361 24.4746C34.7838 24.3566 34.5908 24.3011 34.3977 24.32C32.7837 24.5381 30.7768 24.7474 28.4579 24.8771C28.2691 24.8874 28.0912 24.9675 27.9599 25.1012L25.6979 27.4152L23.172 22.4039C23.1193 22.3 23.0424 22.2098 22.9476 22.1407C22.8527 22.0715 22.7425 22.0254 22.626 22.006Z" fill="black"/>
<path d="M26.0312 5.72247C26.6151 5.38493 27.0714 4.86391 27.3294 4.24022C27.5874 3.61653 27.6326 2.92503 27.4581 2.27295C27.2837 1.62088 26.8992 1.04468 26.3643 0.633715C25.8295 0.222754 25.1742 0 24.5 0C23.8258 0 23.1705 0.222754 22.6357 0.633715C22.1008 1.04468 21.7163 1.62088 21.5419 2.27295C21.3674 2.92503 21.4126 3.61653 21.6706 4.24022C21.9286 4.86391 22.3849 5.38493 22.9688 5.72247V9.20006H16.8438C13.1887 9.20006 9.68342 10.654 7.09893 13.242C4.51445 15.83 3.0625 19.3401 3.0625 23V24.5334C2.25027 24.5334 1.47132 24.8565 0.896986 25.4316C0.322655 26.0067 0 26.7867 0 27.6L0 33.7334C0 34.5467 0.322655 35.3267 0.896986 35.9018C1.47132 36.4769 2.25027 36.8 3.0625 36.8V39.8667C3.0625 41.4933 3.70781 43.0534 4.85647 44.2036C6.00513 45.3538 7.56305 46 9.1875 46H39.8125C41.437 46 42.9949 45.3538 44.1435 44.2036C45.2922 43.0534 45.9375 41.4933 45.9375 39.8667V36.8C46.7497 36.8 47.5287 36.4769 48.103 35.9018C48.6773 35.3267 49 34.5467 49 33.7334V27.6C49 26.7867 48.6773 26.0067 48.103 25.4316C47.5287 24.8565 46.7497 24.5334 45.9375 24.5334V23C45.9375 19.3401 44.4855 15.83 41.9011 13.242C39.3166 10.654 35.8113 9.20006 32.1562 9.20006H26.0312V5.72247ZM42.875 23V39.8667C42.875 40.68 42.5523 41.46 41.978 42.0351C41.4037 42.6102 40.6247 42.9333 39.8125 42.9333H9.1875C8.37527 42.9333 7.59632 42.6102 7.02199 42.0351C6.44766 41.46 6.125 40.68 6.125 39.8667V23C6.125 20.1534 7.25429 17.4233 9.26445 15.4104C11.2746 13.3976 14.001 12.2667 16.8438 12.2667H32.1562C34.999 12.2667 37.7254 13.3976 39.7356 15.4104C41.7457 17.4233 42.875 20.1534 42.875 23Z" fill="black"/>
</svg>
