<svg width="88" height="97" viewBox="0 0 88 97" fill="none" xmlns="http://www.w3.org/2000/svg">
<path d="M24.8625 2.35128C24.758 1.94238 24.5718 1.55888 24.315 1.22392C24.0583 0.888956 23.7364 0.609472 23.3687 0.402322C23.001 0.195173 22.5951 0.0646526 22.1756 0.0186334C21.756 -0.0273859 21.3315 0.0120502 20.9277 0.134562C20.5238 0.257075 20.1489 0.460124 19.8257 0.731463C19.5024 1.0028 19.2375 1.33681 19.0468 1.71333C18.8562 2.08986 18.7438 2.5011 18.7164 2.92225C18.689 3.3434 18.7472 3.76574 18.8875 4.16378L21.45 12.6138C15.7049 18.4516 12.4896 26.3169 12.5 34.5075H75C75.0105 26.3169 71.7952 18.4516 66.05 12.6138L68.6125 4.16378C68.7528 3.76574 68.811 3.3434 68.7836 2.92225C68.7563 2.5011 68.6439 2.08986 68.4532 1.71333C68.2626 1.33681 67.9976 1.0028 67.6744 0.731463C67.3511 0.460124 66.9762 0.257075 66.5724 0.134562C66.1685 0.0120502 65.744 -0.0273859 65.3245 0.0186334C64.9049 0.0646526 64.4991 0.195173 64.1314 0.402322C63.7637 0.609472 63.4417 0.888956 63.185 1.22392C62.9283 1.55888 62.742 1.94238 62.6375 2.35128L60.8188 8.32628C55.7445 5.00995 49.8119 3.24821 43.75 3.25753C37.6882 3.24858 31.7557 5.01029 26.6813 8.32628L24.8625 2.35128Z" fill="white"/>
<path d="M75 34.5075V40.7575H46.875V96.8513C54.5832 96.0766 61.7289 92.4663 66.9258 86.7209C72.1226 80.9755 75.0001 73.5046 75 65.7575H78.125C78.9538 65.7575 79.7487 66.0868 80.3347 66.6728C80.9208 67.2589 81.25 68.0537 81.25 68.8825V72.0075C81.25 72.8363 81.5792 73.6312 82.1653 74.2172C82.7513 74.8033 83.5462 75.1325 84.375 75.1325C85.2038 75.1325 85.9987 74.8033 86.5847 74.2172C87.1708 73.6312 87.5 72.8363 87.5 72.0075V68.8825C87.5 66.3961 86.5123 64.0115 84.7541 62.2534C82.996 60.4952 80.6114 59.5075 78.125 59.5075H75V53.2575H84.375C85.2038 53.2575 85.9987 52.9283 86.5847 52.3422C87.1708 51.7562 87.5 50.9613 87.5 50.1325C87.5 49.3037 87.1708 48.5089 86.5847 47.9228C85.9987 47.3368 85.2038 47.0075 84.375 47.0075H75V40.7575H78.125C80.6114 40.7575 82.996 39.7698 84.7541 38.0116C86.5123 36.2535 87.5 33.8689 87.5 31.3825V28.2575C87.5 27.4287 87.1708 26.6339 86.5847 26.0478C85.9987 25.4618 85.2038 25.1325 84.375 25.1325C83.5462 25.1325 82.7513 25.4618 82.1653 26.0478C81.5792 26.6339 81.25 27.4287 81.25 28.2575V31.3825C81.25 32.2113 80.9208 33.0062 80.3347 33.5922C79.7487 34.1783 78.9538 34.5075 78.125 34.5075H75ZM40.625 96.8513V40.7575H12.5V34.5075H9.375C8.5462 34.5075 7.75134 34.1783 7.16529 33.5922C6.57924 33.0062 6.25 32.2113 6.25 31.3825V28.2575C6.25 27.4287 5.92076 26.6339 5.33471 26.0478C4.74866 25.4618 3.9538 25.1325 3.125 25.1325C2.2962 25.1325 1.50134 25.4618 0.915291 26.0478C0.32924 26.6339 0 27.4287 0 28.2575V31.3825C0 33.8689 0.987721 36.2535 2.74587 38.0116C4.50403 39.7698 6.8886 40.7575 9.375 40.7575H12.5V47.0075H3.125C2.2962 47.0075 1.50134 47.3368 0.915291 47.9228C0.32924 48.5089 0 49.3037 0 50.1325C0 50.9613 0.32924 51.7562 0.915291 52.3422C1.50134 52.9283 2.2962 53.2575 3.125 53.2575H12.5V59.5075H9.375C6.8886 59.5075 4.50403 60.4952 2.74587 62.2534C0.987721 64.0115 0 66.3961 0 68.8825V72.0075C0 72.8363 0.32924 73.6312 0.915291 74.2172C1.50134 74.8033 2.2962 75.1325 3.125 75.1325C3.9538 75.1325 4.74866 74.8033 5.33471 74.2172C5.92076 73.6312 6.25 72.8363 6.25 72.0075V68.8825C6.25 68.0537 6.57924 67.2589 7.16529 66.6728C7.75134 66.0868 8.5462 65.7575 9.375 65.7575H12.5C12.4999 73.5046 15.3774 80.9755 20.5742 86.7209C25.7711 92.4663 32.9168 96.0766 40.625 96.8513Z" fill="white"/>
</svg>
