<svg width="50" height="50" viewBox="0 0 50 50" fill="none" xmlns="http://www.w3.org/2000/svg">
<path d="M0 4.71429V40.8571C0 41.6907 0.331122 42.4901 0.920522 43.0795C1.50992 43.6689 2.30932 44 3.14286 44V4.71429C3.14286 4.29752 3.30842 3.89782 3.60312 3.60312C3.89782 3.30842 4.29752 3.14286 4.71429 3.14286H44C44 2.30932 43.6689 1.50992 43.0795 0.920522C42.4901 0.331122 41.6907 0 40.8571 0L4.71429 0C3.46398 0 2.26488 0.496682 1.38078 1.38078C0.496682 2.26488 0 3.46398 0 4.71429Z" fill="black"/>
<path d="M10.7143 6C9.46398 6 8.26488 6.49668 7.38078 7.38078C6.49668 8.26488 6 9.46398 6 10.7143V45.2857C6 46.536 6.49668 47.7351 7.38078 48.6192C8.26488 49.5033 9.46398 50 10.7143 50H29.8417C31.0916 49.9989 32.2899 49.5015 33.1731 48.6171L48.6203 33.1731C49.5035 32.2894 49.9997 31.0911 50 29.8417V10.7143C50 9.46398 49.5033 8.26488 48.6192 7.38078C47.7351 6.49668 46.536 6 45.2857 6H10.7143ZM29.5714 32.7143C29.5714 31.8807 29.9026 31.0814 30.492 30.492C31.0814 29.9026 31.8807 29.5714 32.7143 29.5714H46.5303C46.6859 29.5712 46.8381 29.6171 46.9675 29.7034C47.097 29.7897 47.1979 29.9125 47.2575 30.0563C47.3171 30.2 47.3327 30.3582 47.3022 30.5108C47.2718 30.6634 47.1967 30.8035 47.0866 30.9134L30.9134 47.0866C30.8035 47.1967 30.6634 47.2718 30.5108 47.3022C30.3582 47.3327 30.2 47.3171 30.0563 47.2575C29.9125 47.1979 29.7897 47.097 29.7034 46.9675C29.6171 46.8381 29.5712 46.6859 29.5714 46.5303V32.7143Z" fill="black"/>
</svg>
