<svg width="101" height="88" viewBox="0 0 101 88" fill="none" xmlns="http://www.w3.org/2000/svg">
<path d="M49.6106 6.35885C49.7332 6.29168 49.8709 6.25724 50.0106 6.25885C50.1482 6.25831 50.2837 6.29272 50.4044 6.35885C50.5473 6.44456 50.664 6.56776 50.7419 6.7151L93.5981 79.6339C93.8231 80.0089 93.8169 80.4089 93.6106 80.7776C93.5314 80.9289 93.4153 81.0579 93.2731 81.1526C93.1494 81.2285 93.0057 81.2655 92.8606 81.2589H7.16064C7.01556 81.2659 6.87174 81.2289 6.74814 81.1526C6.60597 81.0579 6.48992 80.9289 6.41064 80.7776C6.30764 80.6041 6.25433 80.4057 6.25653 80.204C6.25874 80.0023 6.31637 79.805 6.42314 79.6339L49.2731 6.7151C49.3513 6.56795 49.4679 6.44481 49.6106 6.35885ZM56.1356 3.54635C55.517 2.46863 54.6249 1.57323 53.5494 0.950558C52.474 0.327889 51.2533 0 50.0106 0C48.768 0 47.5473 0.327889 46.4718 0.950558C45.3964 1.57323 44.5043 2.46863 43.8856 3.54635L1.02939 76.4651C-1.82686 81.3276 1.59814 87.5089 7.15439 87.5089H92.8606C98.4169 87.5089 101.848 81.3214 98.9856 76.4651L56.1356 3.54635Z" fill="#9462C6"/>
<path d="M43.7606 68.7589C43.7606 67.9381 43.9223 67.1254 44.2364 66.3671C44.5505 65.6088 45.0108 64.9198 45.5912 64.3394C46.1716 63.7591 46.8606 63.2987 47.6188 62.9846C48.3771 62.6705 49.1899 62.5089 50.0106 62.5089C50.8314 62.5089 51.6441 62.6705 52.4024 62.9846C53.1607 63.2987 53.8497 63.7591 54.43 64.3394C55.0104 64.9198 55.4708 65.6088 55.7849 66.3671C56.099 67.1254 56.2606 67.9381 56.2606 68.7589C56.2606 70.4165 55.6021 72.0062 54.43 73.1783C53.2579 74.3504 51.6682 75.0089 50.0106 75.0089C48.353 75.0089 46.7633 74.3504 45.5912 73.1783C44.4191 72.0062 43.7606 70.4165 43.7606 68.7589ZM44.3731 31.2276C44.2899 30.4391 44.3734 29.6419 44.6181 28.8878C44.8629 28.1336 45.2635 27.4394 45.7939 26.85C46.3243 26.2607 46.9727 25.7894 47.6969 25.4669C48.4212 25.1443 49.2052 24.9776 49.9981 24.9776C50.791 24.9776 51.575 25.1443 52.2993 25.4669C53.0236 25.7894 53.672 26.2607 54.2024 26.85C54.7328 27.4394 55.1334 28.1336 55.3781 28.8878C55.6229 29.6419 55.7063 30.4391 55.6231 31.2276L53.4356 53.1463C53.3621 54.0074 52.9681 54.8096 52.3316 55.3941C51.6951 55.9786 50.8623 56.3029 49.9981 56.3029C49.1339 56.3029 48.3012 55.9786 47.6646 55.3941C47.0281 54.8096 46.6341 54.0074 46.5606 53.1463L44.3731 31.2276Z" fill="#9462C6"/>
</svg>
