<svg width="15" height="14" viewBox="0 0 15 14" fill="none" xmlns="http://www.w3.org/2000/svg">
<path d="M15 2C15 1.46957 14.7985 0.960859 14.4397 0.585787C14.081 0.210714 13.5944 1.78271e-07 13.0871 1.78271e-07H6.31539C6.0394 -0.000121649 5.76665 0.0621988 5.51587 0.182683C5.26509 0.303168 5.04221 0.478962 4.86254 0.698L0.230431 6.35C0.0817383 6.53127 0 6.76219 0 7.001C0 7.23981 0.0817383 7.47073 0.230431 7.652L4.86254 13.302C5.04221 13.521 5.26509 13.6968 5.51587 13.8173C5.76665 13.9378 6.0394 14.0001 6.31539 14H13.0871C13.5944 14 14.081 13.7893 14.4397 13.4142C14.7985 13.0391 15 12.5304 15 12V2ZM5.5751 4.854C5.53063 4.80758 5.49535 4.75245 5.47126 4.69177C5.44718 4.6311 5.43476 4.56605 5.43471 4.50035C5.43467 4.43466 5.447 4.36959 5.47101 4.30888C5.49501 4.24816 5.53022 4.19299 5.57462 4.1465C5.61902 4.10001 5.67174 4.06312 5.72978 4.03794C5.78782 4.01275 5.85003 3.99977 5.91287 3.99972C5.9757 3.99968 6.03793 4.01257 6.096 4.03767C6.15407 4.06277 6.20685 4.09958 6.25131 4.146L8.30482 6.293L10.3574 4.146C10.4018 4.09958 10.4546 4.06277 10.5127 4.03767C10.5707 4.01257 10.633 3.99968 10.6958 3.99972C10.7587 3.99977 10.8209 4.01275 10.8789 4.03794C10.9369 4.06312 10.9897 4.10001 11.0341 4.1465C11.0785 4.19299 11.1137 4.24816 11.1377 4.30888C11.1617 4.36959 11.174 4.43466 11.174 4.50035C11.1739 4.56605 11.1615 4.6311 11.1374 4.69177C11.1133 4.75245 11.078 4.80758 11.0336 4.854L8.98103 7L11.0336 9.146C11.1234 9.23975 11.1739 9.36696 11.174 9.49965C11.1741 9.63233 11.1237 9.75961 11.0341 9.8535C10.9444 9.94739 10.8227 10.0002 10.6958 10.0003C10.5689 10.0004 10.4472 9.94775 10.3574 9.854L8.30482 7.707L6.25131 9.854C6.20685 9.90042 6.15407 9.93723 6.096 9.96233C6.03793 9.98743 5.9757 10.0003 5.91287 10.0003C5.85003 10.0002 5.78782 9.98725 5.72978 9.96206C5.67174 9.93688 5.61902 9.89999 5.57462 9.8535C5.53022 9.80701 5.49501 9.75184 5.47101 9.69112C5.447 9.63041 5.43467 9.56534 5.43471 9.49965C5.4348 9.36696 5.4853 9.23975 5.5751 9.146L7.62861 7L5.5751 4.854Z" fill="black"/>
</svg>
