<svg width="73" height="90" viewBox="0 0 73 90" fill="none" xmlns="http://www.w3.org/2000/svg">
<path d="M17.6 71.96C19.9339 71.96 22.1722 71.0097 23.8225 69.3181C25.4729 67.6265 26.4 65.3322 26.4 62.94C26.4 60.5477 25.4729 58.2535 23.8225 56.5619C22.1722 54.8703 19.9339 53.92 17.6 53.92C15.2661 53.92 13.0278 54.8703 11.3775 56.5619C9.72714 58.2535 8.8 60.5477 8.8 62.94C8.8 65.3322 9.72714 67.6265 11.3775 69.3181C13.0278 71.0097 15.2661 71.96 17.6 71.96ZM23.4667 62.94C23.4667 64.5348 22.8486 66.0643 21.7484 67.1921C20.6481 68.3198 19.1559 68.9533 17.6 68.9533C16.0441 68.9533 14.5519 68.3198 13.4516 67.1921C12.3514 66.0643 11.7333 64.5348 11.7333 62.94C11.7333 61.3451 12.3514 59.8156 13.4516 58.6879C14.5519 57.5602 16.0441 56.9266 17.6 56.9266C19.1559 56.9266 20.6481 57.5602 21.7484 58.6879C22.8486 59.8156 23.4667 61.3451 23.4667 62.94ZM35.2 86.9933C35.2 90 32.2667 90 32.2667 90H2.93333C2.93333 90 0 90 0 86.9933C0 83.9866 2.93333 74.9666 17.6 74.9666C32.2667 74.9666 35.2 83.9866 35.2 86.9933ZM32.2667 86.9813C32.2637 86.2416 31.8149 84.0167 29.8261 81.9782C27.9136 80.0178 24.3144 77.9733 17.6 77.9733C10.8827 77.9733 7.2864 80.0178 5.37387 81.9782C3.38507 84.0167 2.9392 86.2416 2.93333 86.9813H32.2667Z" fill="white"/>
<path d="M54.56 71.96C56.8939 71.96 59.1322 71.0097 60.7825 69.3181C62.4329 67.6265 63.36 65.3322 63.36 62.94C63.36 60.5477 62.4329 58.2535 60.7825 56.5619C59.1322 54.8703 56.8939 53.92 54.56 53.92C52.2261 53.92 49.9878 54.8703 48.3375 56.5619C46.6871 58.2535 45.76 60.5477 45.76 62.94C45.76 65.3322 46.6871 67.6265 48.3375 69.3181C49.9878 71.0097 52.2261 71.96 54.56 71.96ZM60.4267 62.94C60.4267 64.5348 59.8086 66.0643 58.7083 67.1921C57.6081 68.3198 56.1159 68.9533 54.56 68.9533C53.0041 68.9533 51.5118 68.3198 50.4116 67.1921C49.3114 66.0643 48.6933 64.5348 48.6933 62.94C48.6933 61.3451 49.3114 59.8156 50.4116 58.6879C51.5118 57.5602 53.0041 56.9266 54.56 56.9266C56.1159 56.9266 57.6081 57.5602 58.7083 58.6879C59.8086 59.8156 60.4267 61.3451 60.4267 62.94ZM72.16 86.9933C72.16 90 69.2267 90 69.2267 90H39.8933C39.8933 90 36.96 90 36.96 86.9933C36.96 83.9866 39.8933 74.9666 54.56 74.9666C69.2267 74.9666 72.16 83.9866 72.16 86.9933ZM69.2267 86.9813C69.2237 86.2416 68.7749 84.0167 66.7861 81.9782C64.8736 80.0178 61.2744 77.9733 54.56 77.9733C47.8427 77.9733 44.2464 80.0178 42.3339 81.9782C40.3451 84.0167 39.8992 86.2416 39.8933 86.9813H69.2267Z" fill="white"/>
<path d="M36.08 27.96C38.4139 27.96 40.6522 27.0097 42.3025 25.3181C43.9529 23.6265 44.88 21.3323 44.88 18.94C44.88 16.5478 43.9529 14.2535 42.3025 12.5619C40.6522 10.8703 38.4139 9.92001 36.08 9.92001C33.7461 9.92001 31.5078 10.8703 29.8575 12.5619C28.2071 14.2535 27.28 16.5478 27.28 18.94C27.28 21.3323 28.2071 23.6265 29.8575 25.3181C31.5078 27.0097 33.7461 27.96 36.08 27.96ZM41.9467 18.94C41.9467 20.5348 41.3286 22.0644 40.2284 23.1921C39.1281 24.3198 37.6359 24.9533 36.08 24.9533C34.5241 24.9533 33.0318 24.3198 31.9316 23.1921C30.8314 22.0644 30.2133 20.5348 30.2133 18.94C30.2133 17.3452 30.8314 15.8157 31.9316 14.6879C33.0318 13.5602 34.5241 12.9267 36.08 12.9267C37.6359 12.9267 39.1281 13.5602 40.2284 14.6879C41.3286 15.8157 41.9467 17.3452 41.9467 18.94ZM53.68 42.9933C53.68 46 50.7467 46 50.7467 46H21.4133C21.4133 46 18.48 46 18.48 42.9933C18.48 39.9867 21.4133 30.9667 36.08 30.9667C50.7467 30.9667 53.68 39.9867 53.68 42.9933ZM50.7467 42.9813C50.7437 42.2417 50.2949 40.0167 48.3061 37.9782C46.3936 36.0179 42.7944 33.9733 36.08 33.9733C29.3627 33.9733 25.7664 36.0179 23.8539 37.9782C21.8651 40.0167 21.4192 42.2417 21.4133 42.9813H50.7467Z" fill="white"/>
<path d="M32.7074 8.35999C31.3714 11.138 47.0271 18.7313 48.2416 16.2059" stroke="#E9D844" stroke-width="3"/>
<path d="M37.105 2.67625C37.464 1.92967 37.1556 1.02168 36.4162 0.648203C35.6767 0.274722 34.7862 0.577177 34.4271 1.32375L37.105 2.67625ZM33.915 9.30936L37.105 2.67625L34.4271 1.32375L31.2371 7.95687L33.915 9.30936Z" fill="#E9D844"/>
<path d="M52.6392 10.5221C52.9982 9.77556 52.6898 8.86757 51.9504 8.49409C51.2109 8.12061 50.3204 8.42306 49.9614 9.16964L52.6392 10.5221ZM49.4492 17.1553L52.6392 10.5221L49.9614 9.16964L46.7713 15.8028L49.4492 17.1553Z" fill="#E9D844"/>
<path d="M43.3099 12.4045L51.3003 9.84589" stroke="#E9D844" stroke-width="3" stroke-linecap="round"/>
<path d="M37.186 1.51652C36.9305 0.728474 36.0877 0.3061 35.3034 0.573119C34.5192 0.840139 34.0906 1.69544 34.3461 2.48348L37.186 1.51652ZM34.3461 2.48348L36.9055 10.3777L39.7454 9.41077L37.186 1.51652L34.3461 2.48348Z" fill="#E9D844"/>
<path d="M44.6473 3.18799L38.3392 9.88668" stroke="#E9D844" stroke-width="3" stroke-linecap="round"/>
<path d="M44.6473 3.18799L43.3059 12.3952" stroke="#E9D844" stroke-width="3" stroke-linecap="round"/>
<path d="M48.3768 11.4166C48.4472 11.3921 48.5619 11.362 48.5852 11.4704C48.6305 11.681 48.2824 11.9098 48.1699 12.0402C47.8601 12.3991 47.7473 12.8707 47.6429 13.3255C47.5581 13.6948 47.2657 13.9357 47.1035 14.2729C47.0294 14.427 46.9678 14.6196 46.8645 14.7545C46.7454 14.9099 46.5564 14.9347 46.3884 15.0096C46.2375 15.0769 46.0925 15.1114 45.9993 14.9255C45.8668 14.6612 45.8416 14.3455 45.8228 14.0549C45.8052 13.7833 45.758 13.4583 45.8247 13.1886C45.8749 12.9856 46.0465 12.851 46.1336 12.6699C46.1745 12.5849 45.9616 12.6982 45.9413 12.7062C45.6601 12.8176 45.3625 12.8859 45.0873 13.0125C44.7965 13.1463 44.7648 13.364 44.5825 13.5981C44.4421 13.7783 44.3984 13.9809 44.303 14.1793C44.2419 14.3063 44.1688 14.3386 44.3025 14.4897C44.407 14.6078 44.5726 14.6859 44.715 14.7457C44.8111 14.7861 44.9358 14.7922 44.7678 14.7056C44.2879 14.4583 43.804 14.2189 43.3222 13.9755C42.8359 13.7299 42.3128 13.5142 41.8534 13.2165C41.6826 13.1058 41.9081 12.8954 41.8252 12.8421C41.4349 12.5907 40.905 12.445 40.4514 12.3883C40.213 12.3586 40.0621 12.5202 39.8267 12.4807C39.5836 12.4399 39.3469 12.2754 39.1392 12.1506C38.6885 11.8797 38.2474 11.6003 37.788 11.3443C37.5865 11.2319 37.3671 11.1275 37.1832 10.9854C37.1281 10.9429 37.061 10.9139 36.9932 10.9009C36.7626 10.8567 36.5277 10.844 36.2958 10.7964C36.2352 10.784 36.2428 10.6993 36.2055 10.6594C36.0578 10.5014 35.718 10.4093 35.5306 10.3147C35.2419 10.1689 34.8771 10.0492 34.6156 9.8506C34.3841 9.67481 34.2114 9.42304 33.9669 9.2504C33.826 9.15099 33.5991 9.08263 33.5768 8.88187C33.5454 8.5992 33.6581 8.31047 33.6384 8.02289C33.6209 7.76671 33.6827 7.49102 33.7153 7.23645C33.7602 6.88672 33.8265 6.51809 33.9796 6.19965C34.2 5.74146 34.394 5.26844 34.6149 4.80897C34.736 4.55725 34.93 4.30891 35.2443 4.47497C35.5989 4.66236 35.7539 5.26299 35.7171 5.642C35.687 5.95204 35.6512 6.2601 35.6253 6.5715C35.6034 6.83494 35.626 7.09416 35.7125 7.34551C35.7419 7.43129 35.8033 7.49775 35.8227 7.58799C35.8508 7.71859 35.8457 7.84506 35.8883 7.97372C35.9557 8.17708 36.0607 8.37345 36.1565 8.56469C36.2247 8.70094 36.2917 8.88622 36.3931 8.993C36.7477 9.36606 37.263 9.40565 37.6963 9.62452C37.7837 9.66865 37.8747 9.70875 37.9597 9.75754C37.9963 9.77852 37.6975 9.75379 37.6724 9.74776C36.6902 9.51201 35.8875 8.89099 35.0074 8.41318C34.8467 8.3259 34.6824 8.24427 34.5115 8.17984C34.4908 8.17206 34.4403 8.15151 34.4458 8.17335C34.4576 8.22064 34.5643 8.2847 34.5897 8.30324C34.8231 8.47335 35.0634 8.63692 35.3087 8.78835C36.3448 9.42792 37.4893 9.86301 38.5722 10.4099C39.1244 10.6889 39.6931 10.925 40.261 11.1677C40.641 11.33 41.0047 11.3907 41.4028 11.4775C41.5291 11.505 42.0562 11.7099 42.0442 11.4355C42.0341 11.206 41.9786 11.0594 41.8433 10.8747C41.6704 10.6385 41.4637 10.4526 41.229 10.2842C41.1777 10.2474 41.1299 10.2122 41.097 10.1566C41.0437 10.0668 40.9523 10.0207 40.9196 9.92211C40.8873 9.82471 41.0407 9.61601 41.0808 9.53275C41.1871 9.31167 41.3539 9.06429 41.4073 8.82283C41.449 8.63435 41.4772 8.4996 41.5612 8.32495C41.6536 8.13278 41.7753 7.72382 41.9901 7.64195C42.1429 7.58371 42.245 7.5099 42.3625 7.38592C42.429 7.3157 42.5066 7.1623 42.5855 7.11548C42.6133 7.09898 42.5885 7.18217 42.5808 7.21414C42.5485 7.3484 42.5111 7.47858 42.4883 7.61532C42.4275 7.9797 42.3565 8.31788 42.3242 8.68746C42.304 8.91927 42.1864 9.11338 42.0875 9.31887C42.0154 9.46893 41.9988 9.7444 42.1234 9.87068" stroke="#E9D844" stroke-width="3" stroke-linecap="round"/>
<path d="M42.5236 9.38664C42.4873 9.28944 42.4046 9.21647 42.4527 9.1164C42.5657 8.88144 42.6557 8.63994 42.7053 8.38245C42.8009 7.88609 43.0685 7.42723 43.2606 6.96471C43.4424 6.52698 43.7512 6.10853 43.8254 5.63561C43.8867 5.24514 43.4487 5.5236 43.301 5.65093C42.2528 6.55462 41.9785 8.0916 41.8359 9.40904C41.7535 10.1698 41.627 10.8982 41.4089 11.6311C41.2377 12.206 41.0994 12.7658 40.84 13.3051" stroke="#E9D844" stroke-width="3" stroke-linecap="round"/>
</svg>
