<svg width="50" height="50" viewBox="0 0 50 50" fill="none" xmlns="http://www.w3.org/2000/svg">
<path d="M48.5781 20.4954C48.8696 22.1734 49.015 23.8735 49.0125 25.5767C49.0125 33.1829 46.2938 39.6142 41.5625 43.9673H41.5688C37.4313 47.7892 31.7437 50.0017 25 50.0017C18.3696 50.0017 12.0107 47.3677 7.32233 42.6793C2.63392 37.9909 0 31.6321 0 25.0017C0 18.3712 2.63392 12.0124 7.32233 7.32398C12.0107 2.63557 18.3696 0.00164965 25 0.00164965C31.2061 -0.0710327 37.1995 2.2605 41.725 6.5079L34.5875 13.6454C32.0074 11.1859 28.5641 9.83912 25 9.8954C18.4781 9.8954 12.9375 14.2954 10.9625 20.2204C9.91533 23.3251 9.91533 26.6876 10.9625 29.7923H10.9719C12.9562 35.7079 18.4875 40.1079 25.0094 40.1079C28.3781 40.1079 31.2719 39.2454 33.5156 37.7204H33.5063C34.8091 36.8573 35.9235 35.7392 36.7824 34.4335C37.6412 33.1278 38.2265 31.6617 38.5031 30.1235H25V20.4985L48.5781 20.4954Z" fill="black"/>
</svg>
