<svg width="75" height="88" viewBox="0 0 75 88" fill="none" xmlns="http://www.w3.org/2000/svg">
<path d="M0 3.125C0 2.2962 0.329241 1.50134 0.915292 0.915291C1.50134 0.32924 2.2962 0 3.125 0H71.875C72.7038 0 73.4987 0.32924 74.0847 0.915291C74.6708 1.50134 75 2.2962 75 3.125C75 3.9538 74.6708 4.74866 74.0847 5.33471C73.4987 5.92076 72.7038 6.25 71.875 6.25H65.625V12.5C65.6263 17.8064 64.1263 23.005 61.2984 27.4951C58.4705 31.9853 54.4301 35.5838 49.6437 37.875C47.8312 38.7437 46.875 40.2313 46.875 41.5625V45.9375C46.875 47.2688 47.8375 48.7562 49.6437 49.625C54.4301 51.9162 58.4705 55.5147 61.2984 60.0049C64.1263 64.495 65.6263 69.6936 65.625 75V81.25H71.875C72.7038 81.25 73.4987 81.5792 74.0847 82.1653C74.6708 82.7513 75 83.5462 75 84.375C75 85.2038 74.6708 85.9987 74.0847 86.5847C73.4987 87.1708 72.7038 87.5 71.875 87.5H3.125C2.2962 87.5 1.50134 87.1708 0.915292 86.5847C0.329241 85.9987 0 85.2038 0 84.375C0 83.5462 0.329241 82.7513 0.915292 82.1653C1.50134 81.5792 2.2962 81.25 3.125 81.25H9.375V75C9.37371 69.6936 10.8737 64.495 13.7016 60.0049C16.5295 55.5147 20.5699 51.9162 25.3563 49.625C27.1688 48.7562 28.125 47.2688 28.125 45.9375V41.5625C28.125 40.2313 27.1625 38.7437 25.3563 37.875C20.5699 35.5838 16.5295 31.9853 13.7016 27.4951C10.8737 23.005 9.37371 17.8064 9.375 12.5V6.25H3.125C2.2962 6.25 1.50134 5.92076 0.915292 5.33471C0.329241 4.74866 0 3.9538 0 3.125ZM15.625 6.25V12.5C15.6239 16.6276 16.7906 20.6713 18.9903 24.164C21.1901 27.6566 24.3331 30.4555 28.0562 32.2375C31.3875 33.8375 34.375 37.1813 34.375 41.5563V45.9437C34.375 50.3187 31.3875 53.6625 28.0562 55.2625C24.3331 57.0445 21.1901 59.8434 18.9903 63.336C16.7906 66.8287 15.6239 70.8724 15.625 75V81.25H59.375V75C59.3761 70.8724 58.2094 66.8287 56.0097 63.336C53.8099 59.8434 50.6669 57.0445 46.9437 55.2625C43.6125 53.6625 40.625 50.325 40.625 45.9437V41.5563C40.625 37.1813 43.6125 33.8375 46.9437 32.2375C50.6669 30.4555 53.8099 27.6566 56.0097 24.164C58.2094 20.6713 59.3761 16.6276 59.375 12.5V6.25H15.625Z" fill="black"/>
</svg>
