<svg width="50" height="50" viewBox="0 0 50 50" fill="none" xmlns="http://www.w3.org/2000/svg">
<path d="M25 46.875C19.1984 46.875 13.6344 44.5703 9.53204 40.468C5.42968 36.3656 3.125 30.8016 3.125 25C3.125 19.1984 5.42968 13.6344 9.53204 9.53204C13.6344 5.42968 19.1984 3.125 25 3.125C30.8016 3.125 36.3656 5.42968 40.468 9.53204C44.5703 13.6344 46.875 19.1984 46.875 25C46.875 30.8016 44.5703 36.3656 40.468 40.468C36.3656 44.5703 30.8016 46.875 25 46.875ZM25 50C31.6304 50 37.9893 47.3661 42.6777 42.6777C47.3661 37.9893 50 31.6304 50 25C50 18.3696 47.3661 12.0107 42.6777 7.32233C37.9893 2.63392 31.6304 0 25 0C18.3696 0 12.0107 2.63392 7.32233 7.32233C2.63392 12.0107 0 18.3696 0 25C0 31.6304 2.63392 37.9893 7.32233 42.6777C12.0107 47.3661 18.3696 50 25 50Z" fill="white"/>
<path d="M27.9063 20.5875L20.75 21.4844L20.4938 22.6719L21.9 22.9312C22.8188 23.15 23 23.4813 22.8 24.3969L20.4938 35.2344C19.8875 38.0375 20.8219 39.3562 23.0188 39.3562C24.7219 39.3562 26.7 38.5688 27.5969 37.4875L27.8719 36.1875C27.2469 36.7375 26.3344 36.9563 25.7281 36.9563C24.8688 36.9563 24.5563 36.3531 24.7781 35.2906L27.9063 20.5875ZM28.125 14.0625C28.125 14.8913 27.7958 15.6862 27.2097 16.2722C26.6237 16.8583 25.8288 17.1875 25 17.1875C24.1712 17.1875 23.3763 16.8583 22.7903 16.2722C22.2042 15.6862 21.875 14.8913 21.875 14.0625C21.875 13.2337 22.2042 12.4388 22.7903 11.8528C23.3763 11.2667 24.1712 10.9375 25 10.9375C25.8288 10.9375 26.6237 11.2667 27.2097 11.8528C27.7958 12.4388 28.125 13.2337 28.125 14.0625Z" fill="white"/>
</svg>
