<svg width="16" height="57" viewBox="0 0 16 57" fill="none" xmlns="http://www.w3.org/2000/svg">
<path d="M15.1872 19.3L0.8747 21.0938L0.362201 23.4688L3.1747 23.9875C5.0122 24.425 5.3747 25.0875 4.9747 26.9188L0.362201 48.5937C-0.850299 54.2 1.01845 56.8375 5.4122 56.8375C8.81845 56.8375 12.7747 55.2625 14.5685 53.1L15.1184 50.5C13.8684 51.6 12.0434 52.0375 10.8309 52.0375C9.1122 52.0375 8.4872 50.8313 8.93095 48.7063L15.1872 19.3ZM15.6247 6.25C15.6247 7.9076 14.9662 9.49731 13.7941 10.6694C12.622 11.8415 11.0323 12.5 9.3747 12.5C7.7171 12.5 6.12739 11.8415 4.95528 10.6694C3.78318 9.49731 3.1247 7.9076 3.1247 6.25C3.1247 4.5924 3.78318 3.00268 4.95528 1.83058C6.12739 0.65848 7.7171 0 9.3747 0C11.0323 0 12.622 0.65848 13.7941 1.83058C14.9662 3.00268 15.6247 4.5924 15.6247 6.25Z" fill="black"/>
</svg>
