<svg width="100" height="100" viewBox="0 0 105 117" fill="none" xmlns="http://www.w3.org/2000/svg">
<path d="M56.2564 38.25C56.2564 37.2554 55.8614 36.3016 55.1581 35.5983C54.4548 34.8951 53.501 34.5 52.5064 34.5C51.5119 34.5 50.5581 34.8951 49.8548 35.5983C49.1515 36.3016 48.7564 37.2554 48.7564 38.25V59.9999H26.2565C25.2619 59.9999 24.3081 60.395 23.6048 61.0983C22.9016 61.8015 22.5065 62.7554 22.5065 63.7499C22.5065 64.7445 22.9016 65.6983 23.6048 66.4016C24.3081 67.1048 25.2619 67.4999 26.2565 67.4999H52.5064C53.501 67.4999 54.4548 67.1048 55.1581 66.4016C55.8614 65.6983 56.2564 64.7445 56.2564 63.7499V38.25Z" fill="white"/>
<path d="M41.2564 3.75C41.2564 2.75544 41.6515 1.80161 42.3548 1.09835C43.058 0.395088 44.0119 0 45.0064 0H60.0064C61.001 0 61.9548 0.395088 62.6581 1.09835C63.3613 1.80161 63.7564 2.75544 63.7564 3.75C63.7564 4.74456 63.3613 5.69838 62.6581 6.40164C61.9548 7.1049 61.001 7.49999 60.0064 7.49999V11.775C70.2064 13.245 79.4614 17.625 86.8864 24.075C86.916 24.0421 86.946 24.0096 86.9764 23.9775L89.6314 21.3225L86.9764 18.675C86.2722 17.9718 85.8762 17.0177 85.8755 16.0226C85.8748 15.0275 86.2695 14.0729 86.9726 13.3687C87.6758 12.6646 88.6299 12.2686 89.625 12.2679C90.6201 12.2672 91.5747 12.6618 92.2789 13.365L102.884 23.9775C103.242 24.3234 103.528 24.7372 103.724 25.1947C103.921 25.6522 104.024 26.1443 104.029 26.6422C104.033 27.1401 103.938 27.6339 103.749 28.0948C103.561 28.5557 103.282 28.9744 102.93 29.3264C102.578 29.6785 102.16 29.957 101.699 30.1455C101.238 30.3341 100.744 30.429 100.246 30.4247C99.7482 30.4203 99.2561 30.3169 98.7986 30.1203C98.3411 29.9238 97.9273 29.6381 97.5814 29.28L94.9339 26.625L92.2789 29.28C92.2469 29.3105 92.2144 29.3405 92.1814 29.37C99.8177 38.1851 104.301 49.292 104.925 60.9381C105.548 72.5842 102.276 84.1064 95.6248 93.6865C88.9733 103.267 79.3212 110.359 68.1916 113.845C57.0619 117.331 45.0884 117.011 34.1604 112.937C23.2323 108.863 13.972 101.266 7.84063 91.3453C1.70924 81.4243 -0.944102 69.7441 0.299279 58.1478C1.54266 46.5515 6.61197 35.6993 14.7073 27.3038C22.8026 18.9082 33.4631 13.4472 45.0064 11.7825V7.49999C44.0119 7.49999 43.058 7.1049 42.3548 6.40164C41.6515 5.69838 41.2564 4.74456 41.2564 3.75ZM52.5064 18.75C46.5969 18.7505 40.7454 19.9149 35.286 22.1768C29.8265 24.4387 24.866 27.7538 20.6877 31.9328C12.2493 40.3726 7.50921 51.8189 7.51021 63.7537C7.5112 75.6884 12.2532 87.1339 20.693 95.5724C29.1329 104.011 40.5792 108.751 52.5139 108.75C64.4486 108.749 75.8942 104.007 84.3326 95.567C92.771 87.1272 97.5111 75.6809 97.5101 63.7462C97.5091 51.8115 92.7671 40.3659 84.3273 31.9275C75.8875 23.4891 64.4411 18.749 52.5064 18.75Z" fill="white"/>
</svg>
