<svg width="14" height="15" viewBox="0 0 14 15" fill="none" xmlns="http://www.w3.org/2000/svg">
<path d="M10.2994 0.024592C10.1767 -0.0124841 10.0443 0.000617363 9.93133 0.061021C9.81832 0.121425 9.7339 0.224196 9.69658 0.346779L9.41503 1.27174C8.62948 0.758406 7.71111 0.485685 6.77271 0.487071C5.79841 0.487071 4.8899 0.775394 4.13039 1.27174L3.84981 0.346779C3.83173 0.285572 3.80173 0.228545 3.76152 0.178984C3.72132 0.129423 3.6717 0.0883072 3.61553 0.0580059C3.55936 0.0277045 3.49776 0.00881611 3.43426 0.00242892C3.37076 -0.00395827 3.30662 0.00228194 3.24555 0.0207901C3.18447 0.0392982 3.12766 0.0697085 3.07839 0.110269C3.02911 0.150829 2.98835 0.200738 2.95845 0.25712C2.92855 0.313503 2.91011 0.375244 2.90417 0.438787C2.89824 0.50233 2.90494 0.566419 2.92388 0.627362L3.32057 1.93546C2.43119 2.83918 1.93345 4.05677 1.93507 5.32471H1.4513C1.323 5.32471 1.19995 5.27375 1.10923 5.18302C1.01851 5.0923 0.967538 4.96925 0.967538 4.84095V4.35719C0.967538 4.22888 0.91657 4.10584 0.825847 4.01511C0.735123 3.92439 0.612076 3.87342 0.483773 3.87342C0.355471 3.87342 0.232424 3.92439 0.1417 4.01511C0.0509767 4.10584 9.17912e-06 4.22888 9.17912e-06 4.35719V4.84095C9.17912e-06 5.22586 0.152913 5.595 0.425083 5.86717C0.697253 6.13934 1.0664 6.29224 1.4513 6.29224H1.93507V7.25977H0.483773C0.355471 7.25977 0.232424 7.31074 0.1417 7.40146C0.0509767 7.49219 9.17912e-06 7.61523 9.17912e-06 7.74354C9.17912e-06 7.87184 0.0509767 7.99489 0.1417 8.08561C0.232424 8.17633 0.355471 8.2273 0.483773 8.2273H1.93507V9.19483H1.4513C1.0664 9.19483 0.697253 9.34773 0.425083 9.6199C0.152913 9.89207 9.17912e-06 10.2612 9.17912e-06 10.6461V11.1299C9.17912e-06 11.2582 0.0509767 11.3812 0.1417 11.472C0.232424 11.5627 0.355471 11.6136 0.483773 11.6136C0.612076 11.6136 0.735123 11.5627 0.825847 11.472C0.91657 11.3812 0.967538 11.2582 0.967538 11.1299V10.6461C0.967538 10.5178 1.01851 10.3948 1.10923 10.304C1.19995 10.2133 1.323 10.1624 1.4513 10.1624H1.93507C1.93507 11.4454 2.44475 12.6759 3.35198 13.5831C4.25921 14.4903 5.48969 15 6.77271 15C8.05573 15 9.28621 14.4903 10.1934 13.5831C11.1007 12.6759 11.6104 11.4454 11.6104 10.1624H12.0941C12.2224 10.1624 12.3455 10.2133 12.4362 10.304C12.5269 10.3948 12.5779 10.5178 12.5779 10.6461V11.1299C12.5779 11.2582 12.6288 11.3812 12.7196 11.472C12.8103 11.5627 12.9333 11.6136 13.0616 11.6136C13.1899 11.6136 13.313 11.5627 13.4037 11.472C13.4944 11.3812 13.5454 11.2582 13.5454 11.1299V10.6461C13.5454 10.2612 13.3925 9.89207 13.1203 9.6199C12.8482 9.34773 12.479 9.19483 12.0941 9.19483H11.6104V8.2273H13.0616C13.1899 8.2273 13.313 8.17633 13.4037 8.08561C13.4944 7.99489 13.5454 7.87184 13.5454 7.74354C13.5454 7.61523 13.4944 7.49219 13.4037 7.40146C13.313 7.31074 13.1899 7.25977 13.0616 7.25977H11.6104V6.29224H12.0941C12.479 6.29224 12.8482 6.13934 13.1203 5.86717C13.3925 5.595 13.5454 5.22586 13.5454 4.84095V4.35719C13.5454 4.22888 13.4944 4.10584 13.4037 4.01511C13.313 3.92439 13.1899 3.87342 13.0616 3.87342C12.9333 3.87342 12.8103 3.92439 12.7196 4.01511C12.6288 4.10584 12.5779 4.22888 12.5779 4.35719V4.84095C12.5779 4.96925 12.5269 5.0923 12.4362 5.18302C12.3455 5.27375 12.2224 5.32471 12.0941 5.32471H11.6104C11.6104 4.00501 11.0811 2.80817 10.2249 1.93546L10.6215 0.627362C10.6586 0.504706 10.6455 0.37235 10.5851 0.259343C10.5247 0.146335 10.4219 0.0619088 10.2994 0.024592ZM10.6428 6.29224V10.1624C10.6431 11.1052 10.2993 12.0158 9.67574 12.723C9.05221 13.4303 8.19194 13.8856 7.25647 14.0034V6.29224H10.6428ZM6.28895 6.29224V14.0034C5.35348 13.8856 4.49321 13.4303 3.86968 12.723C3.24616 12.0158 2.90227 11.1052 2.9026 10.1624V6.29224H6.28895ZM2.9026 5.32471C2.90193 4.77995 3.01659 4.24122 3.23904 3.74395C3.4615 3.24667 3.78671 2.80213 4.19328 2.43954C4.90192 1.80391 5.82076 1.45305 6.77271 1.4546C7.72499 1.45281 8.64422 1.80368 9.35311 2.43954C9.7595 2.80221 10.0845 3.2468 10.3068 3.74407C10.5291 4.24134 10.6436 4.78002 10.6428 5.32471H2.9026Z" fill="black"/>
</svg>
