<svg width="14" height="16" viewBox="0 0 16 16" fill="none" xmlns="http://www.w3.org/2000/svg">
<path d="M4.072 0.56C5.157 0.265 6.31 0 7 0C7.69 0 8.843 0.265 9.928 0.56C11.038 0.86 12.157 1.215 12.815 1.43C13.0901 1.52085 13.334 1.68747 13.5187 1.9107C13.7034 2.13394 13.8213 2.40474 13.859 2.692C14.455 7.169 13.072 10.487 11.394 12.682C10.6824 13.621 9.83399 14.4479 8.877 15.135C8.54609 15.3728 8.19548 15.5819 7.829 15.76C7.549 15.892 7.248 16 7 16C6.752 16 6.452 15.892 6.171 15.76C5.80451 15.5819 5.45391 15.3728 5.123 15.135C4.16603 14.4478 3.31758 13.621 2.606 12.682C0.928004 10.487 -0.454994 7.169 0.141005 2.692C0.178693 2.40474 0.296648 2.13394 0.481322 1.9107C0.665996 1.68747 0.909896 1.52085 1.185 1.43C2.1402 1.11681 3.10281 0.826725 4.072 0.56Z" fill="#38BDF8"/>
</svg>
