<svg width="60" height="70" viewBox="0 0 60 70" fill="white" xmlns="http://www.w3.org/2000/svg">
<path d="M38.4002 66.8874C38.4004 66.3152 38.6279 65.7664 39.0327 65.3619C39.4375 64.9574 39.9864 64.7303 40.5586 64.7305L51.3469 64.7342C52.4914 64.7346 53.5892 64.2804 54.3988 63.4714C55.2083 62.6624 55.6633 61.5649 55.6637 60.4204L55.6817 8.63663C55.6821 7.49214 55.2278 6.39436 54.4188 5.58481C53.6098 4.77525 52.5124 4.32022 51.3679 4.31982L40.5796 4.31608C40.0073 4.31588 39.4586 4.08837 39.0541 3.68359C38.6496 3.27881 38.4225 2.72992 38.4227 2.15767C38.4229 1.58543 38.6504 1.0367 39.0552 0.632197C39.4599 0.227698 40.0088 0.000565452 40.5811 0.000763825L51.3694 0.00450365C53.6583 0.00529714 55.8533 0.915356 57.4713 2.53447C59.0893 4.15359 59.9978 6.34914 59.997 8.63813L59.979 60.4219C59.9783 62.7109 59.0682 64.9058 57.4491 66.5238C55.83 68.1418 53.6344 69.0504 51.3454 69.0496L40.5571 69.0458C39.9849 69.0456 39.4362 68.8181 39.0317 68.4133C38.6272 68.0086 38.4 67.4597 38.4002 66.8874Z" fill="white"/>
<path d="M0.639669 32.9271C0.438665 33.1275 0.279164 33.3655 0.170299 33.6276C0.0614344 33.8897 0.00534637 34.1707 0.00524798 34.4545C0.0051496 34.7383 0.0610428 35.0194 0.169726 35.2815C0.278409 35.5437 0.437745 35.7819 0.63861 35.9824L13.5801 48.9328C13.9851 49.3381 14.5345 49.5659 15.1075 49.5661C15.6804 49.5663 16.23 49.3389 16.6353 48.9339C17.0406 48.5289 17.2684 47.9794 17.2686 47.4065C17.2688 46.8335 17.0414 46.2839 16.6364 45.8786L7.3746 36.6147L45.3192 36.6279C45.8914 36.6281 46.4403 36.401 46.8451 35.9965C47.2499 35.592 47.4774 35.0432 47.4776 34.471C47.4778 33.8987 47.2506 33.3499 46.8461 32.9451C46.4416 32.5403 45.8929 32.3128 45.3207 32.3126L7.3761 32.2994L16.6443 23.042C17.0496 22.637 17.2774 22.0875 17.2776 21.5146C17.2778 20.9416 17.0504 20.392 16.6454 19.9867C16.2403 19.5814 15.6909 19.3536 15.1179 19.3534C14.545 19.3532 13.9954 19.5807 13.5901 19.9857L0.639669 32.9271Z" fill="white"/>
</svg>
