<svg height="99px" width="99px" version="1.1" id="Capa_1" xmlns="http://www.w3.org/2000/svg" xmlns:xlink="http://www.w3.org/1999/xlink" viewBox="0 0 275.998 275.998" xml:space="preserve" fill="#ffffff" stroke="#ffffff"><g id="SVGRepo_bgCarrier" stroke-width="0"></g><g id="SVGRepo_tracerCarrier" stroke-linecap="round" stroke-linejoin="round"></g><g id="SVGRepo_iconCarrier"> <g> <path style="fill:#ffffff;" d="M202.644,63.895C202.644,28.603,174.048,0,138.751,0c-35.289,0-63.893,28.603-63.893,63.895 c0,24.778,14.133,46.216,34.749,56.811v25.582h12.737v-20.704c3.206,0.849,6.492,1.527,9.87,1.875v18.829h12.742v-18.815 c2.896-0.274,5.725-0.795,8.491-1.453v20.268h12.738v-24.754C187.728,111.26,202.644,89.348,202.644,63.895L202.644,63.895z M97.502,78.244c-2.629-0.322-4.917-1.01-6.886-2.084c-1.963-1.069-3.503-2.646-4.617-4.746c-1.107-2.098-1.673-4.988-1.673-8.638 c0-2.493,0.357-5.069,1.071-7.758c0.712-2.671,1.757-5.134,3.142-7.354c1.385-2.236,3.15-4.063,5.292-5.504 c2.132-1.423,4.636-2.131,7.5-2.131c2.316,0,5.267,0.873,8.885,2.607c3.611,1.738,7.12,3.902,10.503,6.503 c3.395,2.58,6.309,5.33,8.77,8.277c2.438,2.954,3.675,5.663,3.675,8.167c0,2.495-1.071,4.621-3.212,6.295 c-2.132,1.701-4.683,3.04-7.621,4.011c-2.954,0.982-5.929,1.702-8.967,2.145c-3.036,0.457-5.479,0.679-7.362,0.679 C102.967,78.714,100.139,78.544,97.502,78.244L97.502,78.244z M126.81,102.867c-0.929-0.678-1.409-1.587-1.409-2.764 c0-1.508,0.399-3.397,1.209-5.669c0.801-2.278,1.8-4.553,3.003-6.826c1.227-2.284,2.521-4.424,3.967-6.426 c1.408-2.01,2.696-3.459,3.881-4.351v28.486c-0.812,0-1.89-0.052-3.22-0.181c-1.342-0.14-2.673-0.379-4.033-0.74 C128.873,104.037,127.759,103.516,126.81,102.867L126.81,102.867z M151.29,102.719c-0.844,0.752-1.873,1.318-3.072,1.676 c-1.201,0.361-2.446,0.6-3.742,0.741c-1.307,0.128-2.348,0.181-3.148,0.181v-28.22c1.162,0.896,2.408,2.31,3.739,4.29 c1.349,1.955,2.569,4.043,3.689,6.279c1.114,2.24,2.028,4.445,2.731,6.617c0.715,2.189,1.082,4.043,1.082,5.556 C152.569,101.006,152.15,101.962,151.29,102.719L151.29,102.719z M170.905,78.714c-1.891,0-4.334-0.222-7.344-0.679 c-3.057-0.443-6.042-1.162-8.992-2.145c-2.932-0.971-5.473-2.311-7.621-4.011c-2.135-1.675-3.213-3.801-3.213-6.295 c0-2.504,1.229-5.213,3.689-8.167c2.445-2.947,5.38-5.698,8.757-8.277c3.383-2.601,6.881-4.765,10.503-6.503 c3.612-1.734,6.586-2.607,8.902-2.607c2.861,0,5.322,0.708,7.422,2.131c2.09,1.441,3.865,3.268,5.291,5.504 c1.428,2.219,2.48,4.683,3.209,7.354c0.715,2.689,1.072,5.265,1.072,7.758c0,3.65-0.555,6.54-1.669,8.638 c-1.114,2.1-2.654,3.677-4.629,4.746c-1.95,1.075-4.257,1.762-6.896,2.084C176.763,78.544,173.94,78.714,170.905,78.714 L170.905,78.714z"></path> <path style="fill:#ffffff;" d="M189.606,238.663c9.221,0,13.664,4.16,13.318,12.461c-0.348,2.652-1.469,4.838-3.369,6.567 c-1.904,1.734-4.245,2.597-7.014,2.597c-1.957,0-4.148-0.461-6.566-1.381c0.924,2.534,1.379,4.776,1.379,6.744 c0,4.494-3.112,7.898-9.339,10.207c-8.42,1.038-12.625-3.698-12.625-14.184c0-2.426,0.228-4.676,0.69-6.75l-28.023-28.193 l-28.187,28.193c0.343,2.074,0.516,4.324,0.516,6.75c0,10.485-4.178,15.222-12.527,14.184c-2.634-0.35-4.803-1.473-6.522-3.371 c-1.711-1.908-2.577-4.184-2.577-6.836c0-1.968,0.403-4.21,1.21-6.744c-2.42,0.92-4.612,1.381-6.569,1.381 c-4.498,0-7.898-3.056-10.204-9.164c-0.35-8.301,4.039-12.461,13.147-12.461c2.534,0,5.416,0.354,8.642,1.038l28.023-27.849 l-28.884-28.887c-2.083,0.471-4.327,0.694-6.746,0.694c-10.496,0-15.222-4.201-14.183-12.626c0.34-2.652,1.469-4.872,3.374-6.654 c1.903-1.789,4.176-2.688,6.83-2.688c1.957,0,4.209,0.463,6.747,1.391c-0.925-2.428-1.388-4.618-1.388-6.578 c0-4.494,3.06-7.957,9.169-10.375c8.304-0.343,12.457,4.092,12.457,13.314c0,2.543-0.346,5.421-1.038,8.652l28.709,28.709 l28.371-29.062c-0.691-2.994-1.038-5.707-1.038-8.124c0-9.338,4.204-13.832,12.625-13.489c2.653,0.342,4.846,1.465,6.573,3.372 c1.728,1.9,2.596,4.233,2.596,7.004c0,1.96-0.403,4.15-1.21,6.577c2.419-0.928,4.61-1.391,6.567-1.391 c4.501,0,7.902,3.115,10.208,9.342c1.153,8.425-3.571,12.626-14.182,12.626c-2.423,0-4.669-0.224-6.747-0.694l-28.883,28.887 l28.02,27.849C184.185,239.017,187.069,238.663,189.606,238.663L189.606,238.663z"></path> </g> </g></svg>