<svg width="50" height="50" viewBox="0 0 50 50" fill="none" xmlns="http://www.w3.org/2000/svg">
<path d="M25 46.875C19.1984 46.875 13.6344 44.5703 9.53204 40.468C5.42968 36.3656 3.125 30.8016 3.125 25C3.125 19.1984 5.42968 13.6344 9.53204 9.53204C13.6344 5.42968 19.1984 3.125 25 3.125C30.8016 3.125 36.3656 5.42968 40.468 9.53204C44.5703 13.6344 46.875 19.1984 46.875 25C46.875 30.8016 44.5703 36.3656 40.468 40.468C36.3656 44.5703 30.8016 46.875 25 46.875ZM25 50C31.6304 50 37.9893 47.3661 42.6777 42.6777C47.3661 37.9893 50 31.6304 50 25C50 18.3696 47.3661 12.0107 42.6777 7.32233C37.9893 2.63392 31.6304 0 25 0C18.3696 0 12.0107 2.63392 7.32233 7.32233C2.63392 12.0107 0 18.3696 0 25C0 31.6304 2.63392 37.9893 7.32233 42.6777C12.0107 47.3661 18.3696 50 25 50Z" fill="white"/>
<path d="M14.4825 14.4825C14.6351 14.3296 14.8164 14.2082 15.0159 14.1254C15.2155 14.0426 15.4294 14 15.6454 14C15.8615 14 16.0754 14.0426 16.275 14.1254C16.4745 14.2082 16.6558 14.3296 16.8083 14.4825L25.5004 23.1779L34.1925 14.4825C34.3452 14.3298 34.5265 14.2087 34.7261 14.126C34.9256 14.0434 35.1395 14.0009 35.3554 14.0009C35.5714 14.0009 35.7852 14.0434 35.9848 14.126C36.1843 14.2087 36.3656 14.3298 36.5183 14.4825C36.671 14.6353 36.7922 14.8166 36.8748 15.0161C36.9575 15.2156 37 15.4295 37 15.6454C37 15.8614 36.9575 16.0753 36.8748 16.2748C36.7922 16.4743 36.671 16.6556 36.5183 16.8083L27.8229 25.5004L36.5183 34.1925C36.671 34.3452 36.7922 34.5265 36.8748 34.7261C36.9575 34.9256 37 35.1395 37 35.3554C37 35.5714 36.9575 35.7852 36.8748 35.9848C36.7922 36.1843 36.671 36.3656 36.5183 36.5183C36.3656 36.671 36.1843 36.7922 35.9848 36.8748C35.7852 36.9575 35.5714 37 35.3554 37C35.1395 37 34.9256 36.9575 34.7261 36.8748C34.5265 36.7922 34.3452 36.671 34.1925 36.5183L25.5004 27.8229L16.8083 36.5183C16.6556 36.671 16.4743 36.7922 16.2748 36.8748C16.0753 36.9575 15.8614 37 15.6454 37C15.4295 37 15.2156 36.9575 15.0161 36.8748C14.8166 36.7922 14.6353 36.671 14.4825 36.5183C14.3298 36.3656 14.2087 36.1843 14.126 35.9848C14.0434 35.7852 14.0009 35.5714 14.0009 35.3554C14.0009 35.1395 14.0434 34.9256 14.126 34.7261C14.2087 34.5265 14.3298 34.3452 14.4825 34.1925L23.1779 25.5004L14.4825 16.8083C14.3296 16.6558 14.2082 16.4745 14.1254 16.275C14.0426 16.0754 14 15.8615 14 15.6454C14 15.4294 14.0426 15.2155 14.1254 15.0159C14.2082 14.8164 14.3296 14.6351 14.4825 14.4825Z" fill="white"/>
</svg>
